# xmcd
# Track frame offsets:
# 150
# 16405
# 30125
# 43212
# 63815
# 78178
# 89181
# 105227
# 118324
# 131117
# 146028
# 161306
# 175075
# 191822
# 205340
# 223100
# 234440
# 254621
# 268198
# 278732
# 293083
# 308517
#
# Disc length: 4343 seconds
# Revision: 0
# Processed by: cddbd v1.4PL0 Copyright (c) Steve Scherf et al.
# Submitted via: VisiTrax 2.9.5.181 - For more info visit www.synapsa.com
#
DISCID=4010f516
DTITLE=Various Artist - Steppin' Country 02
DYEAR=1900
DGENRE=Country
TTITLE0=Hansel Martinez - Love Potion Nr. 9
TTITLE1=Ricochet - Daddy's Money
TTITLE2=Deryl Dodd - 13 Mwz
TTITLE3=Patty Loveless - To Have You Back Again
TTITLE4=Rick Trevino - Un Momento Alla
TTITLE5=Roger Miller - King Of The Road
TTITLE6=The Kinleys - Just Between You and Me
TTITLE7=Collin Raye - My Kind Of Girl
TTITLE8=Patty Loveless - I Try To Think About Elvis
TTITLE9=Asleep At The Wheel - Boogie Back To Texas
TTITLE10=James Bonamy - The Swing
TTITLE11=Wade Hayes - Tore Up From The Floor
TTITLE12=Ricky Skaggs - Cajun Moon
TTITLE13=Ricochet - You Still Got It
TTITLE14=Joe Diffie - Bigger Than The Beatles
TTITLE15=Wade Hayes - When The Wrong Man Loves You Right
TTITLE16=James Bonamy - Little Blue Dot
TTITLE17=Steve Earle - Devil's Right Hand
TTITLE18=Stacy Dean Campell - Eight Feet High
TTITLE19=Rick Trevino - See Rock City
TTITLE20=Charlie Daniels Band - Boogie Woogie Fiddle Country Blues
TTITLE21=Ricky Skaggs - Country Boy
EXTD=
EXTT0=
EXTT1=
EXTT2=
EXTT3=
EXTT4=
EXTT5=
EXTT6=
EXTT7=
EXTT8=
EXTT9=
EXTT10=
EXTT11=
EXTT12=
EXTT13=
EXTT14=
EXTT15=
EXTT16=
EXTT17=
EXTT18=
EXTT19=
EXTT20=
EXTT21=
PLAYORDER=
